<?xml version="1.0" encoding="UTF-8"?><svg width="800px" height="800px" fill="#fff" version="1.1" viewBox="0 0 511 511" xml:space="preserve" xmlns="http://www.w3.org/2000/svg"><path d="m327.5 0c-101.18 0-183.5 82.318-183.5 183.5 0 47.899 18.455 91.563 48.619 124.28l-23.391 23.391c-0.468 0.468-0.853 0.986-1.172 1.532-4.925-3.056-10.613-4.698-16.556-4.698-8.417 0-16.327 3.278-22.272 9.228l-120 120c-5.951 5.949-9.229 13.859-9.229 22.273s3.278 16.324 9.226 22.27c5.947 5.952 13.857 9.23 22.274 9.23s16.327-3.278 22.272-9.228l120-120c5.951-5.949 9.229-13.859 9.229-22.273 0-5.943-1.642-11.631-4.698-16.556 0.546-0.319 1.065-0.703 1.533-1.172l23.391-23.391c32.711 30.164 76.375 48.619 124.27 48.619 101.18 0 183.5-82.318 183.5-183.5s-82.318-183.5-183.5-183.5zm-284.34 491.17c-3.113 3.117-7.255 4.833-11.663 4.833s-8.55-1.716-11.667-4.835c-3.117-3.116-4.833-7.259-4.833-11.665s1.716-8.549 4.834-11.666l106.7-106.7 23.331 23.331-106.7 106.7zm120-120-2.697 2.697-23.331-23.331 2.699-2.699c3.113-3.116 7.255-4.833 11.663-4.833s8.55 1.716 11.667 4.835c3.117 3.116 4.833 7.258 4.833 11.665s-1.716 8.549-4.834 11.666zm164.33-19.166c-92.911 0-168.5-75.589-168.5-168.5s75.589-168.5 168.5-168.5 168.5 75.589 168.5 168.5-75.589 168.5-168.5 168.5z"/><path d="m473.06 141.38c-9.877-34.188-31.68-63.969-61.392-83.858-3.442-2.305-8.1-1.382-10.404 2.061-2.304 3.442-1.382 8.1 2.061 10.404 26.779 17.926 46.427 44.759 55.325 75.556 0.949 3.284 3.946 5.42 7.202 5.42 0.689 0 1.39-0.096 2.085-0.297 3.979-1.149 6.273-5.307 5.123-9.286z"/><path d="m312.32 319.17c-29.982-3.314-57.389-16.145-79.259-37.105-2.99-2.866-7.738-2.765-10.604 0.225s-2.766 7.738 0.225 10.604c23.926 22.931 55.175 37.558 87.989 41.185 0.28 0.031 0.558 0.046 0.833 0.046 3.772 0 7.021-2.839 7.445-6.676 0.456-4.118-2.513-7.824-6.629-8.279z"/><path d="m206.17 246.11c-1.902-3.679-6.428-5.12-10.107-3.217-3.679 1.902-5.12 6.428-3.217 10.107 2.601 5.029 5.519 9.969 8.675 14.683 1.447 2.161 3.821 3.329 6.239 3.329 1.434 0 2.884-0.411 4.166-1.269 3.442-2.304 4.364-6.963 2.06-10.405-2.844-4.247-5.474-8.697-7.816-13.228z"/><path d="m357.84 50.383c4.93 1.119 9.851 2.53 14.625 4.195 0.817 0.285 1.65 0.42 2.47 0.42 3.102 0 6.003-1.938 7.082-5.032 1.364-3.911-0.701-8.188-4.612-9.551-5.304-1.85-10.77-3.417-16.246-4.66-4.038-0.918-8.057 1.614-8.974 5.654-0.916 4.039 1.616 8.057 5.655 8.974z"/><path d="m414.85 174.03c-0.422-2.11-1.729-3.937-3.59-5.016-1.861-1.08-4.095-1.308-6.136-0.628l-15.764 5.255c-1.168-6.344-2.942-12.397-5.245-18.064l10.735-5.368c1.452-0.726 2.628-1.902 3.354-3.354l16-32c1.853-3.705 0.351-8.21-3.354-10.062-3.705-1.853-8.21-0.351-10.062 3.354l-14.882 29.764-8.633 4.317c-6.531-10.319-15.05-18.576-24.84-23.831l13.771-27.542c1.853-3.705 0.351-8.21-3.354-10.062-3.703-1.853-8.209-0.351-10.062 3.354l-14.512 29.023c-3.507-0.754-7.104-1.169-10.78-1.169s-7.274 0.415-10.78 1.169l-14.512-29.023c-1.852-3.705-6.356-5.208-10.062-3.354-3.705 1.852-5.207 6.357-3.354 10.062l13.771 27.542c-9.79 5.254-18.309 13.512-24.84 23.831l-8.633-4.317-14.882-29.764c-1.852-3.705-6.357-5.207-10.062-3.354-3.705 1.852-5.207 6.357-3.354 10.062l16 32c0.726 1.452 1.902 2.628 3.354 3.354l10.735 5.368c-2.303 5.667-4.077 11.72-5.245 18.064l-15.764-5.255c-2.042-0.68-4.275-0.451-6.136 0.628-1.86 1.08-3.168 2.906-3.59 5.016l-8 40c-0.812 4.062 1.822 8.013 5.884 8.825 0.497 0.099 0.991 0.147 1.479 0.147 3.502 0 6.633-2.465 7.347-6.031l6.333-31.669 10.864 3.621c-0.022 0.858-0.052 1.713-0.052 2.577 0 8.995 1.217 17.636 3.426 25.705-0.435 0.282-0.848 0.611-1.229 0.992l-16 16c-2.434 2.434-2.898 6.211-1.128 9.162l24 40c1.406 2.344 3.89 3.643 6.438 3.642 1.313 0 2.644-0.345 3.852-1.07 3.552-2.131 4.704-6.738 2.572-10.29l-20.987-34.979 8.17-8.17c11.129 23.059 31.341 38.509 54.385 38.509s43.256-15.45 54.386-38.508l8.17 8.17-20.987 34.979c-2.131 3.552-0.979 8.159 2.572 10.29 1.208 0.725 2.539 1.07 3.852 1.07 2.548 0 5.032-1.298 6.438-3.642l24-40c1.771-2.951 1.306-6.729-1.128-9.162l-16-16c-0.381-0.381-0.794-0.71-1.229-0.992 2.209-8.069 3.426-16.71 3.426-25.705 0-0.864-0.03-1.719-0.052-2.577l10.864-3.621 6.333 31.669c0.713 3.565 3.845 6.031 7.347 6.031 0.487 0 0.982-0.048 1.479-0.147 4.062-0.813 6.696-4.764 5.884-8.825l-8.001-40.001zm-94.854 81.197c-23.194-4.809-41-31.552-41-63.726 0-10.042 1.736-19.555 4.828-28.038 10.484 6.309 22.908 10.177 36.172 11.236v80.528zm-29.53-105.32c8.904-13.999 22.196-22.911 37.03-22.911s28.126 8.912 37.03 22.911c-10.27 6.455-23.417 10.089-37.03 10.089s-26.76-3.634-37.03-10.089zm44.53 105.32v-80.527c13.264-1.06 25.688-4.928 36.172-11.236 3.092 8.483 4.828 17.995 4.828 28.038 0 32.173-17.806 58.916-41 63.725z"/></svg>