<?xml version="1.0" encoding="UTF-8"?>
<svg enable-background="new 0 0 336 235.2" version="1.1" viewBox="0 0 1400 980" xmlns="http://www.w3.org/2000/svg">
<g transform="matrix(.98 0 0 .98 210 0)">
<path d="m64.4 10 81.7 884.7 353.9 95.3 353.9-95.3 81.7-884.7h-871.2zm695.8 286.7-260.5 111.4-0.6 0.3h251.9l-28.8 331.3-222.1 64.8-0.4-0.1v0.1l-223.3-66-14.4-166.9h110.8l7.2 86.4 118.6 30 1-0.3v0.1l122.8-34.6 8.4-139.2-131.2-0.4-244.9-0.8-8.4-104.4 253.3-105.5 14.8-6.1h-277.6l-13.2-106.9h547.4l-10.8 106.8z" fill="#fff"/>
</g>
</svg>
