<?xml version="1.0" encoding="UTF-8"?>
<svg enable-background="new 0 0 336 235.2" version="1.1" viewBox="0 0 1400 980" xmlns="http://www.w3.org/2000/svg">
<g transform="matrix(1.9141 0 0 1.9141 210 0)">
<path class="st0" d="m256 512c-141.4 0-256-114.6-256-256s114.6-256 256-256 256 114.6 256 256-114.6 256-256 256zm213.3-254h-137.6v39.1h94.4c-13.8 58.7-57 107.6-114 127.2l-226.2-225c23.6-68.5 90.4-117.4 167.1-117.4 59 0 112.1 29.4 145.5 74.4l29.5-25.4c-39.3-52.9-102.3-88.1-175-88.1-102.2-0.1-188.7 72.3-210.3 168.2l259.5 258.3c94.4-23.5 167.1-109.6 167.1-211.3zm-426.6-2c0 55.3 21.7 108.6 63.2 150.1s96.8 63.2 150.1 63.2l-213.3-213.3z" fill="#fff"/>
</g>
</svg>
