<?xml version="1.0" encoding="utf-8"?>
<svg id="master-artboard" viewBox="0 0 1400 980" version="1.1" xmlns="http://www.w3.org/2000/svg" x="0px" y="0px" style="enable-background:new 0 0 336 235.2;" width="1400px" height="980px"><g transform="matrix(1.9140626192092896, 0, 0, 1.9140626192092896, 209.99995139680505, 0)"><g>
	<path class="st0" d="M256,512C114.6,512,0,397.4,0,256S114.6,0,256,0s256,114.6,256,256S397.4,512,256,512z M469.3,258H331.7v39.1&#10;&#9;&#9;h94.4c-13.8,58.7-57,107.6-114,127.2L85.9,199.3c23.6-68.5,90.4-117.4,167.1-117.4c59,0,112.1,29.4,145.5,74.4l29.5-25.4&#10;&#9;&#9;c-39.3-52.9-102.3-88.1-175-88.1C150.8,42.7,64.3,115.1,42.7,211l259.5,258.3C396.6,445.8,469.3,359.7,469.3,258L469.3,258z&#10;&#9;&#9; M42.7,256c0,55.3,21.7,108.6,63.2,150.1c41.5,41.5,96.8,63.2,150.1,63.2L42.7,256z" style="fill: rgb(255, 255, 255);"/>
</g></g></svg>