<?xml version="1.0" encoding="UTF-8"?>
<svg enable-background="new 0 0 336 235.2" version="1.1" viewBox="0 0 1400 980" xmlns="http://www.w3.org/2000/svg">
<g transform="matrix(1.9141 0 0 1.9141 210 0)">
<path class="st0" d="m502.3 233.2-223.5-223.5c-12.9-12.9-33.7-12.9-46.6 0l-46.4 46.4 58.9 58.9c13.7-4.6 29.4-1.5 40.3 9.4 11 11 14 26.8 9.3 40.5l56.8 56.8c13.7-4.7 29.6-1.7 40.5 9.3 15.3 15.3 15.3 40.2 0 55.5s-40.2 15.3-55.5 0c-11.5-11.5-14.4-28.5-8.5-42.7l-52.9-52.9v139.3c3.7 1.9 7.3 4.3 10.4 7.4 15.3 15.3 15.3 40.1 0 55.5-15.3 15.3-40.2 15.3-55.5 0s-15.3-40.2 0-55.5c3.8-3.8 8.2-6.6 12.8-8.6v-140.6c-4.7-1.9-9-4.8-12.8-8.6-11.6-11.6-14.4-28.6-8.5-42.9l-58-58.1-153.4 153.4c-12.9 12.9-12.9 33.8 0 46.6l223.5 223.5c12.9 12.9 33.7 12.9 46.6 0l222.5-222.5c12.9-12.8 12.9-33.7 0-46.6" fill="#fff"/>
</g>
</svg>
