<?xml version="1.0" encoding="utf-8"?>
<!-- Generator: Adobe Illustrator 24.1.1, SVG Export Plug-In . SVG Version: 6.00 Build 0)  -->
<svg version="1.1" id="Layer_1" xmlns="http://www.w3.org/2000/svg" xmlns:xlink="http://www.w3.org/1999/xlink" x="0px" y="0px"
	 viewBox="0 0 512 512" style="enable-background:new 0 0 512 512;" xml:space="preserve">
<g id="XMLID_1_">
	<path id="XMLID_3_" d="M255.5,6.5C114.2,6.5,0,120.7,0,262.1c0,113.3,73.4,208.4,174.9,242.9c12.7,2.7,17.2-5.4,17.2-12.7
		c0-6.3,0-26.3,0-47.1c-70.7,15.4-86.1-29.9-86.1-29.9c-11.8-29.9-28.1-37.2-28.1-37.2c-23.6-16.3,1.8-15.4,1.8-15.4
		c25.4,1.8,39,26.3,39,26.3c22.7,39,59.8,28.1,74.3,20.8c2.7-16.3,9.1-28.1,16.3-34.4c-57.1-7.2-116.9-29-116.9-126.9
		c0-28.1,10-50.7,26.3-68.9c-2.7-6.3-11.8-32.6,2.7-68c0,0,21.7-7.2,70.7,26.3c19.9-5.4,42.6-8.2,64.3-8.2c21.7,0,43.5,2.7,64.3,8.2
		c48.9-32.6,69.8-26.3,69.8-26.3c13.6,35.3,5.4,61.6,2.7,68c16.3,18.1,26.3,40.8,26.3,68.9c0,97.9-59.8,119.6-116.9,126
		c9.1,8.2,17.2,23.6,17.2,47.1c0,34.4,0,61.6,0,69.8c0,7.2,4.5,14.5,17.2,12.7C438.6,470.5,512,374.4,512,262.1
		C511.1,120.7,396.9,6.5,255.5,6.5L255.5,6.5z"/>
</g>
</svg>
