<?xml version="1.0" encoding="UTF-8"?>
<svg enable-background="new 0 0 336 235.2" version="1.1" viewBox="0 0 1400 980" xmlns="http://www.w3.org/2000/svg">
<g transform="matrix(1.9141 0 0 1.9141 210 0)">
<path d="m255.5 6.5c-141.3 0-255.5 114.2-255.5 255.6 0 113.3 73.4 208.4 174.9 242.9 12.7 2.7 17.2-5.4 17.2-12.7v-47.1c-70.7 15.4-86.1-29.9-86.1-29.9-11.8-29.9-28.1-37.2-28.1-37.2-23.6-16.3 1.8-15.4 1.8-15.4 25.4 1.8 39 26.3 39 26.3 22.7 39 59.8 28.1 74.3 20.8 2.7-16.3 9.1-28.1 16.3-34.4-57.1-7.2-116.9-29-116.9-126.9 0-28.1 10-50.7 26.3-68.9-2.7-6.3-11.8-32.6 2.7-68 0 0 21.7-7.2 70.7 26.3 19.9-5.4 42.6-8.2 64.3-8.2s43.5 2.7 64.3 8.2c48.9-32.6 69.8-26.3 69.8-26.3 13.6 35.3 5.4 61.6 2.7 68 16.3 18.1 26.3 40.8 26.3 68.9 0 97.9-59.8 119.6-116.9 126 9.1 8.2 17.2 23.6 17.2 47.1v69.8c0 7.2 4.5 14.5 17.2 12.7 101.6-33.6 175-129.7 175-242-0.9-141.4-115.1-255.6-256.5-255.6z"/>
</g>
</svg>
