<svg xmlns="http://www.w3.org/2000/svg" xmlns:xlink="http://www.w3.org/1999/xlink" version="1.1" enable-background="new 0 0 400 400" xml:space="preserve" width="400" height="400" style=""><rect id="backgroundrect" width="100%" height="100%" x="0" y="0" fill="none" stroke="none"/>

<g class="currentLayer" style=""><title>Layer 1</title><g id="svg_1" class="">
	<g id="svg_2">
		<g id="svg_3">
			
				<rect x="122" y="-0.4000000059604645" transform="matrix(-0.8090394046267327,-0.4671128202232868,0.4671128202232868,-0.8090394046267327,165.28930431151227,353.06942511531497) " fill="#ffffff" width="16.600000381469727" height="320.29998779296875" id="svg_4"/>
		</g>
	</g>
	<g id="svg_5">
		<g id="svg_6">
			<rect x="49.89412618105008" y="267.9487752060436" fill="#ffffff" width="299.23246123091593" height="15.508145987791922" id="svg_7"/>
		</g>
	</g>
	<g id="svg_8">
		<g id="svg_9">
			
				<rect x="37.900001525878906" y="312.20001220703125" transform="matrix(-0.8090394046267327,-0.4671128202232868,0.4671128202232868,-0.8090394046267327,90.31741639798258,633.3626216092713) " fill="#ffffff" width="185" height="16.600000381469727" id="svg_10"/>
		</g>
	</g>
	<g id="svg_11">
		<g id="svg_12">
			
				<rect x="177.10000610351562" y="71.0999984741211" transform="matrix(-0.8090394046267327,-0.4671128202232868,0.4671128202232868,-0.8090394046267327,445.5768954516259,278.103142555628) " fill="#ffffff" width="185" height="16.600000381469727" id="svg_13"/>
		</g>
	</g>
	<g id="svg_14">
		<g id="svg_15">
			
				<rect x="122.0999984741211" y="-13" transform="matrix(-0.4671128202232868,-0.8090394046267327,0.8090394046267327,-0.4671128202232868,131.16269562394726,230.50696200666826) " fill="#ffffff" width="16.600000381469727" height="185" id="svg_16"/>
		</g>
	</g>
	<g id="svg_17">
		<g id="svg_18">
			
				<rect x="109.5999984741211" y="151.60000610351562" transform="matrix(-0.4671128202232868,-0.8090394046267327,0.8090394046267327,-0.4671128202232868,261.2933206458516,455.8931017797862) " fill="#ffffff" width="320.29998779296875" height="16.600000381469727" id="svg_19"/>
		</g>
	</g>
	<g id="svg_20">
		<g id="svg_21">
			<rect x="61.75879252747917" y="114.08180082037136" fill="#ffffff" width="15.508145987791922" height="172.83174348261613" id="svg_22"/>
		</g>
	</g>
	<g id="svg_23">
		<g id="svg_24">
			<rect x="321.8472051257445" y="114.08180082037136" fill="#ffffff" width="15.508145987791922" height="172.83174348261613" id="svg_25"/>
		</g>
	</g>
	<g id="svg_26">
		<g id="svg_27">
			
				<rect x="262.3999938964844" y="240.10000610351562" transform="matrix(-0.4671128202232868,-0.8090394046267327,0.8090394046267327,-0.4671128202232868,131.16736675214952,680.9582416228467) " fill="#ffffff" width="14.5" height="160.89999389648438" id="svg_28"/>
		</g>
	</g>
	<path fill="#ffffff" d="M357.908320549043,291.9583627613989 c-8.968566148287108,15.60156819545778 -28.960994853843783,20.926654346003247 -44.562563049301566,11.958088197716144 c-15.60156819545778,-8.968566148287108 -20.926654346003247,-28.960994853843783 -11.958088197716144,-44.562563049301566 c8.968566148287108,-15.60156819545778 28.960994853843783,-20.926654346003247 44.562563049301566,-11.958088197716144 C361.6452231108293,256.45778842442917 366.9703092613748,276.3567945659412 357.908320549043,291.9583627613989 " id="svg_29"/>
	<path fill="#ffffff" d="M97.63305712062761,141.64145721354527 c-8.968566148287108,15.60156819545778 -28.960994853843783,20.926654346003247 -44.562563049301566,11.958088197716144 c-15.60156819545778,-8.968566148287108 -20.926654346003247,-28.960994853843783 -11.958088197716144,-44.562563049301566 c8.968566148287108,-15.60156819545778 28.960994853843783,-20.926654346003247 44.562563049301566,-11.958088197716144 C101.27653711836923,106.14088287657547 106.60162326891471,126.03988901808748 97.63305712062761,141.64145721354527 " id="svg_30"/>
	<path fill="#ffffff" d="M41.205828437654546,291.9583627613989 c-8.968566148287108,-15.60156819545778 -3.6434799977416374,-35.5005743369698 11.958088197716144,-44.562563049301566 c15.60156819545778,-8.968566148287108 35.5005743369698,-3.6434799977416374 44.562563049301566,11.958088197716144 c8.968566148287108,15.60156819545778 3.6434799977416374,35.5005743369698 -11.958088197716144,44.562563049301566 C70.07340072745367,312.88501710740223 50.174394585941656,307.55993095685676 41.205828437654546,291.9583627613989 " id="svg_31"/>
	<path fill="#ffffff" d="M301.48109186607,141.64145721354527 c-8.968566148287108,-15.60156819545778 -3.6434799977416374,-35.5005743369698 11.958088197716144,-44.562563049301566 c15.60156819545778,-8.968566148287108 35.5005743369698,-3.6434799977416374 44.562563049301566,11.958088197716144 c8.968566148287108,15.60156819545778 3.6434799977416374,35.5005743369698 -11.958088197716144,44.562563049301566 C330.4420867199138,162.56811155954853 310.44965801435706,157.24302540900302 301.48109186607,141.64145721354527 " id="svg_32"/>
	<path fill="#ffffff" d="M199.55707449334878,383.4190529611185 c-18.03055486061887,0 -32.60447485158542,-14.57391999096655 -32.60447485158542,-32.60447485158542 c0,-18.03055486061887 14.57391999096655,-32.60447485158542 32.60447485158542,-32.60447485158542 c18.03055486061887,0 32.60447485158542,14.57391999096655 32.60447485158542,32.60447485158542 C232.1615493449342,368.75171040610735 217.58762935396766,383.4190529611185 199.55707449334878,383.4190529611185 " id="svg_33"/>
	<path fill="#ffffff" d="M199.55707449334878,82.78524186541114 c-18.03055486061887,0 -32.60447485158542,-14.57391999096655 -32.60447485158542,-32.60447485158542 c0,-18.03055486061887 14.57391999096655,-32.60447485158542 32.60447485158542,-32.60447485158542 c18.03055486061887,0 32.60447485158542,14.57391999096655 32.60447485158542,32.60447485158542 C232.1615493449342,68.21132187444458 217.58762935396766,82.78524186541114 199.55707449334878,82.78524186541114 " id="svg_34"/>
</g></g></svg>