<?xml version="1.0" encoding="UTF-8"?>
<svg enable-background="new 0 0 400 400" style="" version="1.1" viewBox="0 0 400 400" xml:space="preserve" xmlns="http://www.w3.org/2000/svg"><rect width="100%" height="100%" fill="none"/>
<g class="currentLayer" style=""><g class="">
<rect transform="matrix(-.80904 -.46711 .46711 -.80904 165.29 353.07)" x="122" y="-.4" width="16.6" height="320.3" fill="#fff"/>
<rect x="49.894" y="267.95" width="299.23" height="15.508" fill="#fff"/>
<rect transform="matrix(-.80904 -.46711 .46711 -.80904 90.317 633.36)" x="37.9" y="312.2" width="185" height="16.6" fill="#fff"/>
<rect transform="matrix(-.80904 -.46711 .46711 -.80904 445.58 278.1)" x="177.1" y="71.1" width="185" height="16.6" fill="#fff"/>
<rect transform="matrix(-.46711 -.80904 .80904 -.46711 131.16 230.51)" x="122.1" y="-13" width="16.6" height="185" fill="#fff"/>
<rect transform="matrix(-.46711 -.80904 .80904 -.46711 261.29 455.89)" x="109.6" y="151.6" width="320.3" height="16.6" fill="#fff"/>
<rect x="61.759" y="114.08" width="15.508" height="172.83" fill="#fff"/>
<rect x="321.85" y="114.08" width="15.508" height="172.83" fill="#fff"/>
<rect transform="matrix(-.46711 -.80904 .80904 -.46711 131.17 680.96)" x="262.4" y="240.1" width="14.5" height="160.9" fill="#fff"/>
<path d="m357.91 291.96c-8.9686 15.602-28.961 20.927-44.563 11.958-15.602-8.9686-20.927-28.961-11.958-44.563 8.9686-15.602 28.961-20.927 44.563-11.958 15.695 9.062 21.02 28.961 11.958 44.563" fill="#fff"/>
<path d="m97.633 141.64c-8.9686 15.602-28.961 20.927-44.563 11.958-15.602-8.9686-20.927-28.961-11.958-44.563 8.9686-15.602 28.961-20.927 44.563-11.958 15.602 9.062 20.927 28.961 11.958 44.563" fill="#fff"/>
<path d="m41.206 291.96c-8.9686-15.602-3.6435-35.501 11.958-44.563 15.602-8.9686 35.501-3.6435 44.563 11.958 8.9686 15.602 3.6435 35.501-11.958 44.563-15.695 8.9686-35.594 3.6435-44.563-11.958" fill="#fff"/>
<path d="m301.48 141.64c-8.9686-15.602-3.6435-35.501 11.958-44.563 15.602-8.9686 35.501-3.6435 44.563 11.958 8.9686 15.602 3.6435 35.501-11.958 44.563-15.602 8.9686-35.594 3.6435-44.563-11.958" fill="#fff"/>
<path d="m199.56 383.42c-18.031 0-32.604-14.574-32.604-32.604s14.574-32.604 32.604-32.604 32.604 14.574 32.604 32.604c0 17.937-14.574 32.604-32.604 32.604" fill="#fff"/>
<path d="m199.56 82.785c-18.031 0-32.604-14.574-32.604-32.604s14.574-32.604 32.604-32.604 32.604 14.574 32.604 32.604c0 18.031-14.574 32.604-32.604 32.604" fill="#fff"/>
</g></g></svg>
