<?xml version="1.0" encoding="UTF-8"?>
<svg enable-background="new 0 0 336 235.2" version="1.1" viewBox="0 0 1400 980" xmlns="http://www.w3.org/2000/svg">
<g transform="matrix(.98 0 0 .98 210 0)">
<g transform="translate(0 511) scale(.1 -.1)">
<path d="m834.2 4977.2c2.5-148.8 568-8638.7 577.9-8646.1 5-7.5 808.6-260.4 1780.8-565.5l1773.4-555.6 1805.7 540.7c992.1 297.6 1808.1 545.7 1810.6 548.1 4.9 5 86.8 1188 183.5 2626.6 99.2 1438.5 230.6 3390.5 292.7 4335.5 64.5 942.5 111.6 1721.3 106.7 1728.7-7.5 5-1885 14.9-4171.8 17.4-3683.3 7.4-4159.5 2.4-4159.5-29.8zm6786-2162.8c-9.9-153.8-22.3-377-32.2-493.6l-14.9-213.3-1019.4-14.9c-560.5-9.9-1473.3-17.4-2028.8-17.4h-1012v-79.4c0-44.6 17.4-277.8 37.2-515.9s37.2-458.8 37.2-488.6v-57.1h3894v-54.6c0-136.4-280.3-3184.6-295.2-3199.5-7.4-9.9-508.4-138.9-1113.6-287.7l-1096.3-270.4-1061.5 315c-711.8 210.8-1061.6 324.9-1064 349.7-14.9 89.3-131.5 1393.9-131.5 1460.8v74.4h416.7c228.2 0 473.7-7.4 545.6-14.9l129-17.4v-382c0-372.1 2.5-382 57-404.3 29.8-14.9 317.5-104.2 637.4-198.4l580.4-173.6 600.2 198.4 600.2 200.9 14.9 302.6c7.4 166.2 19.8 466.3 24.8 669.7l12.4 364.6h-116.6c-721.8 7.4-3581.5 69.4-3588.9 79.4-14.9 12.4-265.4 3075.5-253 3087.9 12.4 9.9 2946.5 47.1 4231.3 52.1l1026.8 5-17.2-277.5z" fill="#fff"/>
</g>
</g>
</svg>
