<?xml version="1.0" encoding="utf-8"?>
<svg viewBox="0 0 3333 3333" shape-rendering="geometricPrecision" text-rendering="geometricPrecision" image-rendering="optimizeQuality" fill-rule="evenodd" clip-rule="evenodd" xmlns="http://www.w3.org/2000/svg">
  <path d="M 1650 300 C 2395.052 300 3000 904.14 3000 1650 C 3000 2395.052 2395.862 3000 1650 3000 C 904.95 3000 300 2395.862 300 1650 C 300 904.95 904.14 300 1650 300 Z M 1475.885 1381.943 L 1752.85 1381.943 L 1752.85 1523.665 L 1756.9 1523.665 C 1795.771 1454.02 1889.713 1381.943 2030.625 1381.943 C 2322.976 1381.943 2377.235 1564.157 2377.235 1800.63 L 2377.235 2283.294 L 2088.122 2283.294 L 2088.122 1855.699 C 2088.122 1753.66 2085.692 1622.466 1937.492 1622.466 C 1786.863 1622.466 1764.188 1733.414 1764.188 1848.411 L 1764.188 2283.294 L 1475.075 2283.294 L 1475.075 1381.943 Z M 1275.854 1131.704 C 1275.854 1214.308 1208.638 1282.333 1125.225 1282.333 C 1042.623 1282.333 974.595 1215.118 974.595 1131.704 C 974.595 1049.101 1041.813 981.073 1125.225 981.073 C 1207.829 981.073 1275.854 1048.291 1275.854 1131.704 Z M 975.405 1381.943 L 1275.854 1381.943 L 1275.854 2283.294 L 975.405 2283.294 L 975.405 1381.943 Z" style=""/>
</svg>