<?xml version="1.0" encoding="UTF-8"?>
<svg clip-rule="evenodd" fill-rule="evenodd" image-rendering="optimizeQuality" shape-rendering="geometricPrecision" text-rendering="geometricPrecision" viewBox="0 0 3333 3333" xmlns="http://www.w3.org/2000/svg">
<path d="m1650 300c745.05 0 1350 604.14 1350 1350 0 745.05-604.14 1350-1350 1350-745.05 0-1350-604.14-1350-1350 0-745.05 604.14-1350 1350-1350zm-174.12 1081.9h276.96v141.72h4.05c38.871-69.645 132.81-141.72 273.72-141.72 292.35 0 346.61 182.21 346.61 418.69v482.66h-289.11v-427.6c0-102.04-2.43-233.23-150.63-233.23-150.63 0-173.3 110.95-173.3 225.94v434.88h-289.11v-901.35zm-200.03-250.24c0 82.604-67.216 150.63-150.63 150.63-82.602 0-150.63-67.215-150.63-150.63 0-82.603 67.218-150.63 150.63-150.63 82.604 0 150.63 67.218 150.63 150.63zm-300.45 250.24h300.45v901.35h-300.45v-901.35z" style=""/>
</svg>
