<?xml version="1.0" encoding="UTF-8"?>
<svg width="300px" height="300px" preserveAspectRatio="xMidYMid" version="1.1" viewBox="-22 -22 300 300" xmlns="http://www.w3.org/2000/svg">
<path d="m119.62 0.068891c-0.55054 0.050042-2.3022 0.22519-3.8788 0.35029-36.361 3.2777-70.419 22.894-91.99 53.044-12.012 16.764-19.694 35.78-22.597 55.921-1.026 7.0308-1.1511 9.1076-1.1511 18.64 0 9.5329 0.12512 11.61 1.1511 18.64 6.9568 48.065 41.165 88.448 87.561 103.41 8.3081 2.6772 17.067 4.5037 27.026 5.6046 3.8788 0.42535 20.645 0.42535 24.524 0 17.192-1.9016 31.756-6.1551 46.12-13.486 2.2022-1.1259 2.6276-1.4262 2.3273-1.6764-0.2002-0.15012-9.5844-12.736-20.845-27.948l-20.47-27.648-25.65-37.956c-14.114-20.867-25.725-37.931-25.825-37.931-0.1001-0.025021-0.2002 16.839-0.25024 37.431-0.075073 36.055-0.1001 37.506-0.55054 38.357-0.65064 1.226-1.1511 1.7264-2.2022 2.2769-0.80078 0.40033-1.5015 0.4754-5.2802 0.4754h-4.3292l-1.1511-0.7256c-0.75073-0.4754-1.3013-1.1009-1.6766-1.8265l-0.52551-1.1259 0.050049-50.167 0.075073-50.192 0.77576-0.97581c0.40039-0.52544 1.2512-1.201 1.8518-1.5263 1.026-0.50042 1.4264-0.55046 5.7556-0.55046 5.105 0 5.9558 0.20017 7.2821 1.6514 0.37537 0.40033 14.264 21.318 30.88 46.514 16.616 25.196 39.338 59.599 50.499 76.488l20.27 30.7 1.026-0.67556c9.0839-5.9049 18.693-14.312 26.301-23.069 16.191-18.59 26.626-41.259 30.129-65.429 1.026-7.0308 1.1511-9.1076 1.1511-18.64 0-9.5329-0.12512-11.61-1.1511-18.64-6.9568-48.065-41.165-88.448-87.561-103.41-8.183-2.6522-16.891-4.4787-26.651-5.5796-2.4023-0.25021-18.943-0.52544-21.021-0.32527zm52.401 77.414c1.2012 0.6005 2.1771 1.7515 2.5275 2.9524 0.2002 0.65054 0.25024 14.562 0.2002 45.913l-0.075073 44.987-7.9327-12.16-7.9578-12.16v-32.702c0-21.143 0.1001-33.027 0.25024-33.603 0.40039-1.4012 1.2762-2.5021 2.4774-3.1526 1.026-0.52544 1.4014-0.57548 5.3302-0.57548 3.7036 0 4.3543 0.050042 5.1801 0.50042z" fill="#fff"/>
</svg>
