<?xml version="1.0" encoding="UTF-8"?>
<svg enable-background="new 0 0 1400 980" version="1.1" viewBox="0 0 1400 980" xmlns="http://www.w3.org/2000/svg">
<g transform="matrix(1.425 0 0 1.425 -12.097 -222.71)">
<g fill="#fff">
<path d="m307.6 425.1h-51.6l-21.2 109.1h48.2s58.7 1.5 61.4-70.7c2.8-41.5-36.8-38.4-36.8-38.4z"/>
<path d="m748.1 425.1h-51.6l-21.2 109.1h48.2s58.7 1.5 61.4-70.7c2.9-41.5-36.8-38.4-36.8-38.4z"/>
<path d="m500 241.9c-270.6 0-490 115.6-490 258.1s219.4 258.1 490 258.1 490-115.5 490-258.1c0-142.5-219.4-258.1-490-258.1zm-219.4 332.8-52.2-0.4-14.7 68.6h-55.9l50.4-258.1s71.6 0.9 118.6 0 93.2 32.3 71.6 107.5c-26 89.8-117.8 82.4-117.8 82.4zm251.3 0s13.4-60 19.3-101.6c2.4-17.1 13-46.2-15-46.2-23.4-0.1-58.4-0.2-58.4-0.2l-29.5 148.1h-55.3l51.6-259.3h56.6l-14.2 69.3h58.4s77.4-6.1 68.2 57.8-26.4 132.1-26.4 132.1h-55.3zm306.9-82.3c-25.8 89.7-117.7 82.3-117.7 82.3l-52.2-0.4-14.7 68.6h-55.9l50.4-258.1s71.6 0.9 118.6 0c46.9-0.9 93.1 32.3 71.5 107.6z"/>
</g>
</g>
</svg>
