<?xml version="1.0" encoding="UTF-8"?>
<svg enable-background="new 0 0 336 235.2" version="1.1" viewBox="0 0 1400 980" xmlns="http://www.w3.org/2000/svg">
<g transform="matrix(1.9141 0 0 1.9141 210 0)">
<path d="m256 210.3c-25.2 0-45.7 20.5-45.7 45.7s20.5 45.7 45.7 45.7 45.7-20.5 45.7-45.7-20.5-45.7-45.7-45.7zm-127.8 136.5-10.1-2.5c-75-19-118.1-51.2-118.1-88.4s43.1-69.3 118.1-88.3l10.1-2.5 2.8 10c7.6 26.2 17.3 51.7 29.1 76.3l2.2 4.5-2.2 4.6c-11.7 24.6-21.5 50.1-29.1 76.3l-2.8 10zm-14.8-155.9c-57 16-92 40.6-92 65s35 48.9 92 65c7-22.3 15.4-43.9 25.3-65-9.9-21.1-18.3-42.7-25.3-65zm270.4 155.9-2.8-10c-7.6-26.2-17.3-51.7-29.1-76.3l-2.2-4.6 2.2-4.6c11.7-24.6 21.5-50.1 29.1-76.3l2.8-9.9 10.1 2.5c75 19 118.1 51.2 118.1 88.3 0 37.2-43.1 69.3-118.1 88.3l-10.1 2.6zm-10.5-90.9c10.3 22.2 18.8 43.9 25.3 65 57.1-16.1 92-40.6 92-65s-35-48.9-92-65c-7 22.2-15.5 43.9-25.3 65zm-260-65.1-2.8-10c-21.2-74.3-14.8-127.6 17.5-146.2 31.7-18.3 82.4 3.3 135.7 58l7.3 7.4-7.3 7.4c-18.9 19.7-36.2 40.8-51.7 63.3l-2.9 4.1-5 0.4c-27.3 2.2-54.3 6.5-80.8 13l-10 2.6zm40.4-141.4c-5.7 0-10.8 1.2-15.1 3.7-21.2 12.3-24.9 54.8-10.3 112.1 22.8-5.1 45.7-8.7 69-10.8 13.3-19 28-37.2 43.7-54.3-33.2-32.3-64.7-50.7-87.3-50.7zm204.6 434.4c-30.4 0-69.5-22.8-110-64.5l-7.3-7.4 7.3-7.4c18.9-19.7 36.2-40.8 51.7-63.3l2.8-4.1 5-0.5c27.2-2.1 54.3-6.4 80.8-13l10.1-2.5 2.8 10c21.1 74.3 14.7 127.6-17.6 146.2-7.7 4.4-16.6 6.6-25.6 6.5zm-87.4-72.1c33.2 32.4 64.8 50.8 87.3 50.8h0.1c5.7 0 10.8-1.3 15-3.7 21.2-12.3 25-54.8 10.3-112.1-22.8 5.1-45.8 8.7-69 10.7-13.3 19-27.9 37.1-43.7 54.3zm127.9-220.9-10.1-2.6c-26.6-6.5-53.6-10.8-80.8-13l-5-0.4-2.8-4.1c-15.5-22.5-32.8-43.7-51.7-63.3l-7.3-7.4 7.3-7.4c53.3-54.7 104-76.3 135.7-58 32.3 18.6 38.7 71.9 17.6 146.3l-2.9 9.9zm-84.1-36.4c24.3 2.3 47.5 5.8 69 10.8 14.7-57.3 10.8-99.8-10.3-112.1-21.1-12.2-60.8 6.5-102.4 47.1 15.7 17.2 30.3 35.2 43.7 54.2zm-161 329.4c-9 0.2-17.9-2.1-25.7-6.6-32.3-18.6-38.7-71.8-17.6-146.2l2.8-10 10.1 2.5c24.7 6.3 51.8 10.6 80.8 13l5 0.5 2.8 4.1c15.5 22.5 32.8 43.7 51.7 63.3l7.2 7.4-7.2 7.4c-40.4 41.7-79.5 64.6-109.9 64.6zm-25.4-137.1c-14.7 57.3-10.8 99.8 10.3 112.1 21.1 12 60.7-6.5 102.4-47.1-15.7-17.2-30.4-35.3-43.7-54.3-23.2-2.1-46.2-5.6-69-10.7zm127.7 13.4c-17.6 0-35.6-0.8-53.7-2.3l-5-0.4-2.9-4.2c-10.2-14.7-19.8-29.7-28.8-45.2s-17.3-31.3-24.9-47.5l-2.2-4.6 2.2-4.6c7.7-16.2 15.9-32 24.9-47.5 8.8-15.3 18.5-30.5 28.8-45.3l2.9-4.2 5-0.4c35.7-3 71.7-3 107.3 0l5 0.4 2.9 4.2c20.4 29.3 38.4 60.4 53.7 92.8l2.2 4.6-2.2 4.6c-15.3 32.3-33.2 63.4-53.7 92.8l-2.9 4.2-5 0.4c-17.9 1.4-36 2.2-53.6 2.2zm-46.8-23.2c31.5 2.4 62.2 2.4 93.7 0 17.6-25.7 33.2-52.8 46.8-81-13.5-28.2-29.2-55.2-46.9-81-31.2-2.4-62.5-2.4-93.7 0-17.8 25.8-33.4 52.8-46.9 81 13.6 28.2 29.3 55.3 47 81z" fill="#fff"/>
</g>
</svg>
