<?xml version="1.0" encoding="UTF-8"?>
<svg fill="#fff" viewBox="0 0 50 50" xmlns="http://www.w3.org/2000/svg">
<path d="m24 2c-7.168 0-13 8.2923-13 18.486 0 5.2662 1.5649 10.008 4.0605 13.373a3.5 3.5 0 0 0 3.4395 4.1406 3.5 3.5 0 1 0 0-7 3.5 3.5 0 0 0-0.56836 0.050781c-1.7881-2.6635-2.9316-6.4393-2.9316-10.564 0-7.853 4.122-14.486 9-14.486 4.119 0 7.6891 4.7375 8.7031 10.938 1.422 0.408 2.8386 0.95995 4.2266 1.627-0.678-9.294-6.2177-16.564-12.93-16.564zm-1.5 15a3.5 3.5 0 1 0 0 7 3.5 3.5 0 0 0 3.1406-1.959c3.2498-0.20353 7.0055 0.7991 10.473 2.877 6.86 4.113 10.591 11.305 8.1445 15.705-0.804 1.446-2.2525 2.4859-4.1895 3.0039-2.789 0.746-6.2091 0.36672-9.5781-0.98828-1.069 0.994-2.2443 1.9272-3.5273 2.7852 3.328 1.681 6.8476 2.5723 10.1 2.5723 1.41 0 2.771-0.16586 4.041-0.50586 3.007-0.805 5.3074-2.5078 6.6504-4.9238 3.584-6.449-0.62598-15.708-9.584-21.078-4.2625-2.5564-8.9844-3.7345-13.135-3.3945a3.5 3.5 0 0 0-2.5352-1.0938zm-13.34 6.3242c-7.081 5.471-10.118 13.475-6.9121 19.242 1.343 2.416 3.6434 4.1188 6.6504 4.9238 1.271 0.34 2.629 0.50586 4.041 0.50586 3.8 0 7.9706-1.2064 11.768-3.4824 4.2478-2.5467 7.3887-5.97 9.1699-9.5508 1.7511-0.19075 3.123-1.6619 3.123-3.4629 0-1.93-1.57-3.5-3.5-3.5s-3.5 1.57-3.5 3.5c0 0.54022 0.13208 1.0466 0.35156 1.5039-1.4439 2.9748-4.1381 5.9415-7.7012 8.0781-4.296 2.576-9.0508 3.5279-12.719 2.5449-1.936-0.518-3.3835-1.5579-4.1875-3.0039-1.934-3.48 0.0021563-8.6996 4.2852-12.768-0.411-1.44-0.70514-2.9562-0.86914-4.5312z"/>
</svg>
