<?xml version="1.0" encoding="UTF-8"?>
<svg style="" viewBox="0 0 547.83 547.83" xmlns="http://www.w3.org/2000/svg">
<rect width="100%" height="100%" fill="none"/>
<g class="currentLayer" style="">
<title>Layer 1</title>
<path class="selected" d="m273.91 42.307c127.7 0 231.22 103.69 231.22 231.61 0 127.91-103.52 231.61-231.22 231.61-127.7 5.5e-14 -231.22-103.69-231.22-231.61 0-127.91 103.52-231.61 231.22-231.61" fill="#fff" fill-rule="evenodd"/>
<path class="" d="m233.79 344.44c2.9414 11.359 2.6188 21.953-0.41925 31.546a49.795 51.986 0 0 1-2.4225 6.2449c-2.3428 5.0759-5.4872 9.8266-9.3387 14.212-11.746 13.379-28.159 18.439-35.197 14.176-7.5997-4.5989-3.7932-23.463 9.8266-38.493 14.652-16.172 35.734-26.569 35.734-26.569l-0.032477-0.065501c0.60747-0.34137 1.2245-0.69277 1.8497-1.0519zm167-191.04c-9.1556-37.487-68.695-49.811-125.05-28.91-33.535 12.437-69.84 31.959-95.943 57.45-31.038 30.308-35.987 56.687-33.946 67.71 7.1952 38.893 58.241 64.316 79.225 83.178v0.11405c-6.1876 3.1802-51.476 27.107-62.073 51.57-11.182 25.806 1.7796 44.325 10.362 46.818 26.591 7.7237 53.878-6.1686 68.542-29.004 14.151-22.037 12.973-50.494 6.8232-64.649 8.4839-2.3364 18.373-3.3829 30.942-1.8502 35.467 4.3246 42.426 27.444 41.095 37.118-1.3293 9.6764-8.7688 14.997-11.256 16.602-2.4875 1.6067-3.2462 2.1631-3.0366 3.3567 0.30115 1.7362 1.4526 1.6722 3.5732 1.2969 2.9193-0.51399 18.623-7.8709 19.294-25.731 0.85548-22.676-19.959-48.042-56.815-47.379-15.179 0.27356-24.723 1.7801-31.617 4.4594a70.729 73.841 0 0 0-1.5648-1.8063c-22.785-25.38-64.906-43.332-63.119-77.451 0.64954-12.404 4.7786-45.066 80.936-84.685 62.386-32.454 112.33-23.522 120.96-3.7297 12.329 28.277-26.691 80.833-91.479 88.414-24.683 2.889-37.68-7.0987-40.913-10.818-3.4042-3.9154-3.9113-4.0919-5.1816-3.3575-2.0704 1.1967-0.75878 4.6544 0 6.715 1.9339 5.2555 9.8723 14.576 23.406 19.212 11.904 4.0788 40.885 6.3197 75.934-7.8331 39.253-15.853 69.906-59.949 60.903-96.81"/>
</g>
</svg>
