<svg xmlns="http://www.w3.org/2000/svg" height="547.8270263671875" width="547.8270263671875" style=""><rect id="backgroundrect" width="100%" height="100%" x="0" y="0" fill="none" stroke="none"/><g class="currentLayer" style=""><title>Layer 1</title><path d="M273.91435785972794,42.307222079919605 c127.69976467401146,0 231.22083608424558,103.69411741054421 231.22083608424558,231.60630219830887 c0,127.91303033162953 -103.52107141023411,231.60630219830887 -231.22083608424558,231.60630219830887 C146.21374904602214,505.5198264765374 42.69183349609375,401.82655460985796 42.69183349609375,273.9135242782284 C42.69183349609375,146.00133949046383 146.21374904602214,42.30806762378446 273.91435785972794,42.30806762378446 " fill="#fff" fill-rule="evenodd" id="svg_1" class="selected"/><path d="M233.78932475016316,344.43819696296714 c2.9413972055838866,11.359347226777151 2.6188399712450767,21.952722596596395 -0.41925059291634886,31.54586509887906 a49.794865315708954,51.985908867298036 0 0 1 -2.4225007851258002,6.244905360952583 c-2.34278412309241,5.075912094347812 -5.487163569965021,9.826632917431805 -9.338659333763449,14.212091506916153 c-11.746397774068246,13.379077847588691 -28.159172746054015,18.438807437916267 -35.197120639464906,14.175873521728 c-7.5996551138498605,-4.598913523465578 -3.7931845017554813,-23.463089638485226 9.826554830097436,-38.492782896138145 c14.652365352081736,-16.171715684223955 35.73373187370819,-26.568589219511747 35.73373187370819,-26.568589219511747 l-0.0324771586061961,-0.06550061151048507 c0.607470489384076,-0.3413737752840577 1.2245365029017987,-0.69276529115207 1.8497218060710723,-1.0518627613154345 zm167.00124013926498,-191.044477699487 C391.63495863144504,115.90656340288538 332.0954694993953,103.58243069833023 275.744646848681,124.48329053361121 c-33.5348806126205,12.437410232696779 -69.83991523090131,31.958904249109885 -95.94343146063134,57.45020105813154 c-31.037829986148658,30.308288839045666 -35.986906087388306,56.68731158289177 -33.9460119158853,67.70990860696207 c7.19516686575451,38.893492519496405 58.241140905043046,64.31620633528942 79.22507595085091,83.17807066402047 v0.11404812357119744 c-6.187636831721386,3.180247337691426 -51.47555827357959,27.107235424756794 -62.07344562057417,51.56978733534906 c-11.182476201906116,25.806470339701512 1.779600668171331,44.3246491068599 10.36168982985862,46.817525321406 c26.591411726064013,7.72367799023047 53.878129893197034,-6.168616413428609 68.54156700389454,-29.00367077684271 c14.15118374540885,-22.037488093845262 12.973148628693197,-50.494036115718046 6.823155776265355,-64.64910356084859 c8.483919568627652,-2.3364453423504723 18.37321436421433,-3.382913935659163 30.94187474481217,-1.8501996263138154 c35.46653343244811,4.324581550551073 42.42550278106665,27.443985627463636 41.094677395453665,37.11804064984749 c-1.3293491511308861,9.67636680867246 -8.768832823672916,14.996557654182899 -11.256287926011106,16.602478529334082 c-2.487455102338193,1.6066914705807194 -3.2462396261374984,2.1630613707050723 -3.036614329679324,3.3567136910549675 c0.3011518343483633,1.7361515027426178 1.4526147303862207,1.672192082091204 3.5732255639226085,1.2969121079076016 c2.9192536883523887,-0.5139871514999216 18.623436108930246,-7.87086171727168 19.294384681044612,-25.730951987607074 c0.8554778823768446,-22.676311704929873 -19.95942831523058,-48.04200145893729 -56.81509839533462,-47.3792893895371 c-15.178642944950324,0.2735613774849668 -24.723236988966693,1.7800754422261196 -31.617252020372838,4.459435750719719 a70.72860838912541,73.84076584434347 0 0 0 -1.5648085510258065,-1.8062756868303127 c-22.784941113969634,-25.37956047173906 -64.90560147448267,-43.332122193618666 -63.11935775114189,-77.45100543171547 c0.6495431721239211,-12.403504033797233 4.778571018557109,-45.06596191007268 80.9360317156046,-84.68458472876162 c62.385669213538286,-32.45362651487143 112.32741986021617,-23.522425486559428 120.95822475981274,-3.7296818789499637 c12.328772277256626,28.2769992867911 -26.691057553605752,80.8331487719451 -91.4792983867615,88.41426660771158 c-24.683378657949998,2.8889622653271516 -37.6801470383568,-7.098725096877493 -40.91310055415539,-10.818389235243501 c-3.4041967157221786,-3.9153953774679273 -3.911283260323466,-4.091861730831469 -5.181583032170359,-3.3574842864845027 c-2.070418861144995,1.1967347020680361 -0.7587845237993077,4.654396394392106 0,6.714968572969005 c1.9338671715507634,5.255460829429494 9.872318099042529,14.575812549656726 23.405697713692607,19.21171465373999 c11.903616746411876,4.078761608529372 40.885052098995494,6.3196531176174915 75.93381117300936,-7.83310254122446 c39.253074879034145,-15.852689176396416 69.90560766535475,-59.94924203611393 60.90279167626901,-96.80990381249667 " fill="#000" id="svg_2" class=""/></g></svg>