<svg xmlns="http://www.w3.org/2000/svg" xmlns:xlink="http://www.w3.org/1999/xlink" version="1.1" style="enable-background:new 0 0 115.28 122.88" xml:space="preserve" width="115" height="123"><rect id="backgroundrect" width="100%" height="100%" x="0" y="0" fill="none" stroke="none" class="" style=""/><style type="text/css">.st0{fill-rule:evenodd;clip-rule:evenodd;}</style><g class="currentLayer" style=""><title>Layer 1</title><g id="svg_1" class=""><path style="fill: rgb(255, 255, 255);" class="st0" d="M31.26430530310564,56.736585124362705 h54.823774512098396 V40.12383224353881 H68.62187421771523 c-1.8336558367949065,0 -4.385563959891965,-0.9886531470276685 -5.593917806259116,-2.197006993394819 c-1.2083538463671508,-1.2083538463671508 -1.9435061864646475,-3.388460785966625 -1.9435061864646475,-5.213666595863859 V15.027252357451836 l0,0 H16.704908958416127 c-0.15210048415810298,0 -0.27040086072551656,0.07605024207905153 -0.34645110280456787,0.15210048415810298 C16.231707452146473,15.26385311058666 16.197907344555784,15.373703460256403 16.197907344555784,15.534253971312177 v89.95053632572248 c0,0.11830037656741332 0.07605024207905153,0.27040086072551656 0.15210048415810298,0.34645110280456787 c0.07605024207905153,0.11830037656741332 0.23660075313482665,0.15210048415810298 0.34645110280456787,0.15210048415810298 c19.24916127289768,0 49.086206248578854,0 68.87616924292757,0 c0.15210048415810298,0 0.1436504572604305,-0.07605024207905153 0.22815072623715427,-0.15210048415810298 c0.11830037656741332,-0.07605024207905153 0.27885088762318894,-0.23660075313482665 0.27885088762318894,-0.34645110280456787 v-9.430230017802376 H31.26430530310564 c-3.498311135636365,0 -6.38822033464032,-2.8730091452086093 -6.38822033464032,-6.38822033464032 V63.11635543210535 C24.876084968465314,59.60959426957131 27.749094113673927,56.736585124362705 31.26430530310564,56.736585124362705 L31.26430530310564,56.736585124362705 zM34.80486657323036,79.5009575866921 l6.016419151142735,-0.38025121039525706 c0.1267504034650858,0.9717530932323237 0.39715126419060215,1.7153554602274932 0.7943025283812043,2.222357074087836 c0.6506520711207734,0.8281026359718934 1.580155029864735,1.24215395395784 2.796958903129558,1.24215395395784 c0.9041528780509446,0 1.5970550836600803,-0.21125067244180953 2.087156643725078,-0.6337520173254291 c0.49010156006499844,-0.42250134488361907 0.7351523400974976,-0.9126029049486171 0.7351523400974976,-1.4787547070926668 c0,-0.5323516945533605 -0.22815072623715427,-1.0055532008230132 -0.6929022056091357,-1.428054545706633 c-0.464751479371981,-0.42250134488361907 -1.5379048953763732,-0.8112025821765491 -3.2363603018085216,-1.1914537925718058 c-2.780058849334213,-0.6168519635300843 -4.748915116491878,-1.4534046263996498 -5.940368909063683,-2.48430790791568 c-1.1914537925718058,-1.0309032815160304 -1.7914057023065442,-2.349107477552922 -1.7914057023065442,-3.954612588110674 c0,-1.0478033353113752 0.30420096831620597,-2.044906509236716 0.9126029049486171,-2.974409467980678 c0.6084019366324119,-0.9379529856416342 1.529454868478701,-1.6731053257391315 2.754708768641196,-2.2054570202924917 c1.2252539001624951,-0.5323516945533605 2.906809252799299,-0.8027525552788767 5.0362160310127395,-0.8027525552788767 c2.619508338278438,0 4.61371468612912,0.49010156006499844 5.991069070449718,1.4618546532973218 c1.3773543843205982,0.9717530932323237 2.1885569664971465,2.5265580424040417 2.4505078003249903,4.6559648206174815 l-5.957268962859028,0.35490112970224025 c-0.16055051105577536,-0.9295029587439618 -0.49010156006499844,-1.6055051105577522 -0.9971031739253409,-2.0280064554413713 c-0.5070016138603434,-0.42250134488361907 -1.2083538463671508,-0.6337520173254291 -2.1040566975204227,-0.6337520173254291 c-0.7351523400974976,0 -1.2928541153438742,0.16055051105577536 -1.664655298841459,0.464751479371981 c-0.37180118349758506,0.31265099521387835 -0.5577017752463778,0.6929022056091357 -0.5577017752463778,1.1407536311857713 c0,0.3211010221115507 0.15210048415810298,0.6168519635300843 0.45630145247430853,0.8788027973579275 c0.2873009145208613,0.27040086072551656 0.9971031739253409,0.5239016676556882 2.112506724418095,0.7520523938928424 c2.771608822436541,0.5999519097347396 4.748915116491878,1.199903819469478 5.940368909063683,1.8167557829995618 c1.199903819469478,0.6084019366324119 2.070256589929733,1.3689043574229256 2.6110583113807655,2.2730572354738707 c0.5408017214510329,0.9041528780509446 0.8196526090742209,1.909706078873958 0.8196526090742209,3.0335596562643845 c0,1.309754169139219 -0.36335115659991263,2.5265580424040417 -1.090053469799737,3.6335115659991235 c-0.7267023131998251,1.1069535235950818 -1.7407055409205103,1.9519562133623198 -3.0504597100597297,2.5265580424040417 c-1.3013041422415468,0.5746018290417226 -2.9406093603899883,0.8619027435625828 -4.926365681342998,0.8619027435625828 c-3.4814110818410207,0 -5.898118774575321,-0.6760021518137904 -7.24167305130523,-2.0111064016460265 C35.742819558872,83.27811960995164 34.982317138081484,81.57121417662182 34.80486657323036,79.5009575866921 L34.80486657323036,79.5009575866921 zM74.35944248123478,83.27811960995164 c0.7858525014835314,0.5492517483487053 1.3013041422415468,0.8957028511532723 1.5463549222740456,1.0393533084137028 c0.35490112970224025,0.20280064554413726 0.8534527166649105,0.44785142557663615 1.4618546532973218,0.7182522863021528 l-1.7491555678181827,3.5490112970223997 c-0.8788027973579275,-0.4309513717812915 -1.757605594715855,-0.9379529856416342 -2.6279583651761103,-1.529454868478701 c-0.8703527704602554,-0.5915018828370671 -1.4787547070926668,-1.0393533084137028 -1.8167557829995618,-1.335104249832236 c-1.3942544381159432,0.6084019366324119 -3.151860032831798,0.9126029049486171 -5.2559167303522205,0.9126029049486171 c-3.1180599252411088,0 -5.577017752463771,-0.8112025821765491 -7.376873481667988,-2.4336077465296455 c-2.12940677821344,-1.9181561057716303 -3.19411016732016,-4.61371468612912 -3.19411016732016,-8.086675741072469 c0,-3.3715607321712797 0.9295029587439618,-5.991069070449718 2.7885088762318855,-7.866975041732986 c1.8590059174879237,-1.867455944385596 4.453164175073344,-2.8054089300272307 7.799374826551607,-2.8054089300272307 c3.4053608397619692,0 6.024869178040407,0.9126029049486171 7.875425068630658,2.737808714845851 c1.8505558905902513,1.8252058098972341 2.780058849334213,4.436264121278 2.780058849334213,7.8331749341422965 C76.59024958222028,79.04465613421779 75.84664721522512,81.4613638269521 74.35944248123478,83.27811960995164 L74.35944248123478,83.27811960995164 zM69.50067701507317,80.02485925434779 c0.5070016138603434,-0.9041528780509446 0.7605024207905143,-2.2561571816785255 0.7605024207905143,-4.04756288398507 c0,-2.070256589929733 -0.38870123729292955,-3.5405612701247278 -1.157653684981116,-4.427814094380327 c-0.7774024745858592,-0.8788027973579275 -1.8336558367949065,-1.3266542229345637 -3.1856601404224874,-1.3266542229345637 c-1.2675040346508573,0 -2.289957289269215,0.45630145247430853 -3.067359763855074,1.3520043036275808 c-0.7858525014835314,0.9041528780509446 -1.174553738776461,2.315307369962232 -1.174553738776461,4.2334634757338625 c0,2.239257127883181 0.38025121039525706,3.8109621308502435 1.1492036580834437,4.706664982003516 c0.7689524476881866,0.9041528780509446 1.8167557829995618,1.3520043036275808 3.151860032831798,1.3520043036275808 c0.4309513717812915,0 0.8365526628695659,-0.04225013448836196 1.2168038732648228,-0.1267504034650858 c-0.5323516945533605,-0.5154516407580157 -1.3773543843205982,-0.9971031739253409 -2.5265580424040417,-1.4534046263996498 l0.9886531470276685,-2.2730572354738707 c0.5661518021440504,0.10140032277206862 1.0055532008230132,0.22815072623715427 1.309754169139219,0.38025121039525706 c0.31265099521387835,0.1436504572604305 0.9295029587439618,0.5408017214510329 1.8336558367949065,1.174553738776461 C69.01902548190583,79.72065828603158 69.24717620814297,79.87275877018968 69.50067701507317,80.02485925434779 L69.50067701507317,80.02485925434779 zM79.57310907709864,65.78656393176982 h6.329070146356613 V81.24166312761261 h9.90343152407203 v5.0362160310127395 H79.57310907709864 V65.78656393176982 L79.57310907709864,65.78656393176982 zM92.45095006915135,56.736585124362705 h8.390876709388674 c3.51521118943171,0 6.38822033464032,2.8814591721062817 6.38822033464032,6.38822033464032 v26.549984512486617 c0,3.5067611625340382 -2.8814591721062817,6.38822033464032 -6.38822033464032,6.38822033464032 h-8.390876709388674 v11.449786446346074 c0,1.3604543305252532 -0.5492517483487053,2.5688081768924036 -1.436504572604305,3.4645110280456755 c-0.8957028511532723,0.8957028511532723 -2.1040566975204227,1.436504572604305 -3.4645110280456755,1.436504572604305 c-24.876879186747487,0 -47.818702213928,0 -72.82233180414057,0 c-1.3604543305252532,0 -2.5688081768924036,-0.5408017214510329 -3.4645110280456755,-1.436504572604305 c-0.8957028511532723,-0.8957028511532723 -1.436504572604305,-2.1040566975204227 -1.436504572604305,-3.4645110280456755 V13.514697542768479 c0,-1.3604543305252532 0.5492517483487053,-2.5688081768924036 1.436504572604305,-3.4645110280456755 c0.8957028511532723,-0.8957028511532723 2.137856805111113,-1.436504572604305 3.4645110280456755,-1.436504572604305 h49.61855794313222 C64.45601095716275,8.571431807630137 64.57431133373015,8.571431807630137 64.69261171029757,8.571431807630137 c0.5408017214510329,0 1.090053469799737,0.23660075313482665 1.4787547070926668,0.583051855939395 h0.07605024207905153 c0.07605024207905153,0.04225013448836196 0.11830037656741332,0.07605024207905153 0.19435061864646475,0.15210048415810298 l25.341630666119467,25.654281661333346 c0.4309513717812915,0.4309513717812915 0.7436023669951701,1.0140032277206856 0.7436023669951701,1.6731053257391315 c0,0.19435061864646475 -0.04225013448836196,0.34645110280456787 -0.07605024207905153,0.5492517483487053 V56.736585124362705 L92.45095006915135,56.736585124362705 zM66.87271864989702,32.20615704041978 V16.125755854149244 l18.10840764171191,18.336558367949067 H69.12887583157557 c-0.6253019904277567,0 -1.1661037118787885,-0.27040086072551656 -1.5970550836600803,-0.6591020980184457 C67.14311951062257,33.414510886786935 66.87271864989702,32.83145903084754 66.87271864989702,32.20615704041978 L66.87271864989702,32.20615704041978 z" id="svg_2"/></g></g></svg>