<?xml version="1.0" encoding="UTF-8"?>
<svg enable-background="new 0 0 115.28 122.88" version="1.1" viewBox="0 0 115 123" xml:space="preserve" xmlns="http://www.w3.org/2000/svg"><rect class="" width="100%" height="100%" fill="none" style=""/><style type="text/css">.st0{fill-rule:evenodd;clip-rule:evenodd;}</style><g class="currentLayer" style=""><title>Layer 1</title><g class=""><path class="st0" d="m31.264 56.737h54.824v-16.613h-17.466c-1.8337 0-4.3856-0.98865-5.5939-2.197-1.2084-1.2084-1.9435-3.3885-1.9435-5.2137v-17.686h-44.38c-0.1521 0-0.2704 0.07605-0.34645 0.1521-0.12675 0.0845-0.16055 0.19435-0.16055 0.3549v89.951c0 0.1183 0.07605 0.2704 0.1521 0.34645 0.07605 0.1183 0.2366 0.1521 0.34645 0.1521h68.876c0.1521 0 0.14365-0.07605 0.22815-0.1521 0.1183-0.07605 0.27885-0.2366 0.27885-0.34645v-9.4302h-54.815c-3.4983 0-6.3882-2.873-6.3882-6.3882v-26.55c-6e-15 -3.5068 2.873-6.3798 6.3882-6.3798zm3.5406 22.764 6.0164-0.38025c0.12675 0.97175 0.39715 1.7154 0.7943 2.2224 0.65065 0.8281 1.5802 1.2422 2.797 1.2422 0.90415 0 1.5971-0.21125 2.0872-0.63375 0.4901-0.4225 0.73515-0.9126 0.73515-1.4788 0-0.53235-0.22815-1.0056-0.6929-1.4281-0.46475-0.4225-1.5379-0.8112-3.2364-1.1915-2.7801-0.61685-4.7489-1.4534-5.9404-2.4843-1.1915-1.0309-1.7914-2.3491-1.7914-3.9546 0-1.0478 0.3042-2.0449 0.9126-2.9744 0.6084-0.93795 1.5295-1.6731 2.7547-2.2055 1.2253-0.53235 2.9068-0.80275 5.0362-0.80275 2.6195 0 4.6137 0.4901 5.9911 1.4619 1.3774 0.97175 2.1886 2.5266 2.4505 4.656l-5.9573 0.3549c-0.16055-0.9295-0.4901-1.6055-0.9971-2.028-0.507-0.4225-1.2084-0.63375-2.1041-0.63375-0.73515 0-1.2929 0.16055-1.6647 0.46475-0.3718 0.31265-0.5577 0.6929-0.5577 1.1408 0 0.3211 0.1521 0.61685 0.4563 0.8788 0.2873 0.2704 0.9971 0.5239 2.1125 0.75205 2.7716 0.59995 4.7489 1.1999 5.9404 1.8168 1.1999 0.6084 2.0703 1.3689 2.6111 2.2731 0.5408 0.90415 0.81965 1.9097 0.81965 3.0336 0 1.3098-0.36335 2.5266-1.0901 3.6335-0.7267 1.107-1.7407 1.952-3.0505 2.5266-1.3013 0.5746-2.9406 0.8619-4.9264 0.8619-3.4814 0-5.8981-0.676-7.2417-2.0111-1.3267-1.3351-2.0872-3.042-2.2646-5.1123zm39.555 3.7772c0.78585 0.54925 1.3013 0.8957 1.5464 1.0394 0.3549 0.2028 0.85345 0.44785 1.4619 0.71825l-1.7492 3.549c-0.8788-0.43095-1.7576-0.93795-2.628-1.5295-0.87035-0.5915-1.4788-1.0394-1.8168-1.3351-1.3943 0.6084-3.1519 0.9126-5.2559 0.9126-3.1181 0-5.577-0.8112-7.3769-2.4336-2.1294-1.9182-3.1941-4.6137-3.1941-8.0867 0-3.3716 0.9295-5.9911 2.7885-7.867 1.859-1.8675 4.4532-2.8054 7.7994-2.8054 3.4054 0 6.0249 0.9126 7.8754 2.7378 1.8506 1.8252 2.7801 4.4363 2.7801 7.8332-7.6e-15 3.0336-0.7436 5.4503-2.2308 7.267zm-4.8588-3.2533c0.507-0.90415 0.7605-2.2562 0.7605-4.0476 0-2.0703-0.3887-3.5406-1.1577-4.4278-0.7774-0.8788-1.8337-1.3267-3.1857-1.3267-1.2675 0-2.29 0.4563-3.0674 1.352-0.78585 0.90415-1.1746 2.3153-1.1746 4.2335 0 2.2393 0.38025 3.811 1.1492 4.7067 0.76895 0.90415 1.8168 1.352 3.1519 1.352 0.43095 0 0.83655-0.04225 1.2168-0.12675-0.53235-0.51545-1.3774-0.9971-2.5266-1.4534l0.98865-2.2731c0.56615 0.1014 1.0056 0.22815 1.3098 0.38025 0.31265 0.14365 0.9295 0.5408 1.8337 1.1746 0.2197 0.1521 0.44785 0.3042 0.70135 0.4563zm10.072-14.238h6.3291v15.455h9.9034v5.0362h-16.233v-20.491zm12.878-9.05h8.3909c3.5152 0 6.3882 2.8815 6.3882 6.3882v26.55c0 3.5068-2.8815 6.3882-6.3882 6.3882h-8.3909v11.45c0 1.3605-0.54925 2.5688-1.4365 3.4645-0.8957 0.8957-2.1041 1.4365-3.4645 1.4365h-72.822c-1.3605 0-2.5688-0.5408-3.4645-1.4365-0.8957-0.8957-1.4365-2.1041-1.4365-3.4645v-93.998c0-1.3605 0.54925-2.5688 1.4365-3.4645 0.8957-0.8957 2.1379-1.4365 3.4645-1.4365h49.619c0.10985-0.04225 0.22815-0.04225 0.34645-0.04225 0.5408 0 1.0901 0.2366 1.4788 0.58305h0.07605c0.07605 0.04225 0.1183 0.07605 0.19435 0.1521l25.342 25.654c0.43095 0.43095 0.7436 1.014 0.7436 1.6731 0 0.19435-0.04225 0.34645-0.07605 0.54925v19.553h1.135e-14zm-25.578-24.53v-16.08l18.108 18.337h-15.852c-0.6253 0-1.1661-0.2704-1.5971-0.6591-0.3887-0.3887-0.6591-0.97175-0.6591-1.5971z" fill="#fff"/></g></g></svg>
