<?xml version="1.0" encoding="UTF-8"?>
<svg enable-background="new 0 0 336 235.2" version="1.1" viewBox="0 0 1400 980" xmlns="http://www.w3.org/2000/svg">
<g transform="matrix(1.9141 0 0 1.9141 210 0)">
<path d="m473.6 394.6-208.4 117.4v-91.4l129.8-71.2 78.6 45.2zm14.3-12.8v-245.5l-76.3 43.9v157.8l76.3 43.8zm-449.5 12.8 208.4 117.4v-91.4l-129.8-71.2-78.6 45.2zm-14.3-12.8v-245.5l76.3 43.9v157.8l-76.3 43.8zm9-261.4 213.7-120.4v88.4l-137.9 75.6-75.8-43.6zm445.8 0-213.7-120.4v88.4l137.9 75.6 75.8-43.6zm-232.1 279.4-128.1-70.2v-139l128.1 73.7v135.5zm18.4 0 128.1-70.2v-139l-128.1 73.7v135.5zm-137.8-225.2 128.6-70.4 128.6 70.4-128.6 74-128.6-74z" fill="#fff"/>
</g>
</svg>
